<svg xmlns="http://www.w3.org/2000/svg" viewBox="0 0 960 380" font-family="-apple-system, BlinkMacSystemFont, 'Segoe UI', Helvetica, Arial, sans-serif" font-size="13">
  <defs>
    <marker id="arrow" viewBox="0 0 10 10" refX="9" refY="5" markerWidth="6" markerHeight="6" orient="auto-start-reverse">
      <path d="M0,0 L10,5 L0,10 z" fill="#1F3A68"/>
    </marker>
    <marker id="arrow-dashed" viewBox="0 0 10 10" refX="9" refY="5" markerWidth="6" markerHeight="6" orient="auto-start-reverse">
      <path d="M0,0 L10,5 L0,10 z" fill="#888"/>
    </marker>
  </defs>

  <!-- Title -->
  <text x="480" y="28" text-anchor="middle" font-weight="600" font-size="15" fill="#1F3A68">Physics-Constrained Prediction Network — sEMG → Future Trajectory &amp; Stiffness</text>

  <!-- Stage 1: Input -->
  <g>
    <rect x="20" y="80" width="130" height="64" rx="8" fill="#EEF2F7" stroke="#1F3A68"/>
    <text x="85" y="105" text-anchor="middle" font-weight="600">Input (14-dim)</text>
    <text x="85" y="123" text-anchor="middle" fill="#555">sEMG ×8</text>
    <text x="85" y="138" text-anchor="middle" fill="#555">pos ×3 · vel ×3</text>
  </g>
  <line x1="150" y1="112" x2="184" y2="112" stroke="#1F3A68" stroke-width="1.6" marker-end="url(#arrow)"/>

  <!-- Stage 2: Encoder -->
  <g>
    <rect x="184" y="80" width="130" height="64" rx="8" fill="#FFFFFF" stroke="#1F3A68"/>
    <text x="249" y="105" text-anchor="middle" font-weight="600">Pre-trained</text>
    <text x="249" y="123" text-anchor="middle" font-weight="600">Encoder</text>
    <text x="249" y="138" text-anchor="middle" fill="#555">NinaPro · 40 subj.</text>
  </g>
  <line x1="314" y1="112" x2="348" y2="112" stroke="#1F3A68" stroke-width="1.6" marker-end="url(#arrow)"/>

  <!-- Stage 3: Channel attention -->
  <g>
    <rect x="348" y="80" width="120" height="64" rx="8" fill="#FFFFFF" stroke="#1F3A68"/>
    <text x="408" y="108" text-anchor="middle" font-weight="600">Channel</text>
    <text x="408" y="126" text-anchor="middle" font-weight="600">Attention</text>
  </g>
  <line x1="468" y1="112" x2="502" y2="112" stroke="#1F3A68" stroke-width="1.6" marker-end="url(#arrow)"/>

  <!-- Stage 4: LSTM -->
  <g>
    <rect x="502" y="80" width="130" height="64" rx="8" fill="#1F3A68" stroke="#1F3A68"/>
    <text x="567" y="105" text-anchor="middle" font-weight="600" fill="#fff">2-layer LSTM</text>
    <text x="567" y="123" text-anchor="middle" fill="#fff">hidden = 48</text>
    <text x="567" y="138" text-anchor="middle" fill="#bcd"></text>
  </g>
  <line x1="632" y1="112" x2="666" y2="112" stroke="#1F3A68" stroke-width="1.6" marker-end="url(#arrow)"/>

  <!-- Stage 5: Temporal attention -->
  <g>
    <rect x="666" y="80" width="120" height="64" rx="8" fill="#FFFFFF" stroke="#1F3A68"/>
    <text x="726" y="108" text-anchor="middle" font-weight="600">Temporal</text>
    <text x="726" y="126" text-anchor="middle" font-weight="600">Attention</text>
  </g>
  <line x1="786" y1="112" x2="820" y2="112" stroke="#1F3A68" stroke-width="1.6" marker-end="url(#arrow)"/>

  <!-- Stage 6: Softplus heads -->
  <g>
    <rect x="820" y="80" width="120" height="64" rx="8" fill="#EEF2F7" stroke="#1F3A68"/>
    <text x="880" y="105" text-anchor="middle" font-weight="600">Softplus</text>
    <text x="880" y="123" text-anchor="middle" font-weight="600">heads</text>
    <text x="880" y="138" text-anchor="middle" fill="#555">K ≥ 0</text>
  </g>

  <!-- Output arrow downwards -->
  <line x1="880" y1="144" x2="880" y2="186" stroke="#1F3A68" stroke-width="1.6" marker-end="url(#arrow)"/>

  <!-- Output box -->
  <g>
    <rect x="700" y="186" width="240" height="64" rx="8" fill="#FFFFFF" stroke="#1F3A68" stroke-width="1.4"/>
    <text x="820" y="210" text-anchor="middle" font-weight="600" fill="#1F3A68">Future trajectory (3) + stiffness (3)</text>
    <text x="820" y="230" text-anchor="middle" fill="#555">100 – 500 ms ahead</text>
    <text x="820" y="245" text-anchor="middle" fill="#555" font-style="italic">(Δt = teleoperation latency)</text>
  </g>

  <!-- MC-Dropout branch from heads, going left & down -->
  <path d="M820,112 L188,112 L188,225" stroke="#888" stroke-width="1.4" stroke-dasharray="4 4" fill="none" marker-end="url(#arrow-dashed)" opacity="0"/>
  <!-- Better: MC-Dropout decision branch from output box -->
  <path d="M700,218 Q500,218 470,218 L470,290" stroke="#888" stroke-width="1.4" stroke-dasharray="4 4" fill="none" marker-end="url(#arrow-dashed)"/>
  <text x="530" y="210" fill="#666" font-style="italic">low-confidence (MC-Dropout)</text>

  <!-- Fallback box -->
  <g>
    <rect x="310" y="290" width="320" height="50" rx="8" fill="#FFF3E6" stroke="#C97400" stroke-width="1.4"/>
    <text x="470" y="312" text-anchor="middle" font-weight="600" fill="#8A4A00">Fallback: energy-based safety controller (OBG-K)</text>
    <text x="470" y="328" text-anchor="middle" fill="#8A4A00" font-style="italic" font-size="12">used when network is not confident</text>
  </g>

  <!-- Loss annotation, lower-left -->
  <g>
    <rect x="20" y="290" width="270" height="50" rx="8" fill="#F5F5F5" stroke="#888" stroke-width="1"/>
    <text x="155" y="310" text-anchor="middle" font-weight="600" fill="#444">Physics-informed loss</text>
    <text x="155" y="328" text-anchor="middle" fill="#666" font-style="italic" font-size="12">MSE  +  λ · ‖∂K/∂t‖²   (bounded stiffness rate)</text>
  </g>
</svg>
